<svg width="69" height="69" viewBox="0 0 69 69" fill="none" xmlns="http://www.w3.org/2000/svg">
<path d="M28.0313 19.3286C35.2073 12.1138 53.1516 24.7365 28.0313 40.9688C2.91098 24.7365 20.8553 12.1181 28.0313 19.3286Z" fill="white"/>
<path d="M56.0625 28.0314C56.0719 33.9949 54.1706 39.8046 50.6374 44.6087C50.8099 44.7381 50.9738 44.8761 51.1333 45.0313L67.7365 61.6344C68.5457 62.4431 69.0005 63.54 69.0009 64.684C69.0013 65.828 68.5473 66.9253 67.7386 67.7345C66.93 68.5437 65.833 68.9985 64.6891 68.9989C63.5451 68.9993 62.4478 68.5453 61.6386 67.7366L45.0355 51.1335C44.8794 50.9793 44.7352 50.8135 44.6042 50.6376H44.6128C39.5319 54.3653 33.3431 56.2722 27.0453 56.0505C20.7475 55.8289 14.7081 53.4916 9.90183 49.4159C5.09555 45.3402 1.80281 39.7639 0.555031 33.587C-0.692745 27.41 0.177244 20.9928 3.02459 15.3711C5.87193 9.74932 10.5305 5.25099 16.2484 2.60209C21.9664 -0.0468109 28.4101 -0.691737 34.5396 0.771398C40.6691 2.23453 46.1268 5.72037 50.0318 10.6663C53.9368 15.6122 56.0614 21.7297 56.0625 28.0314V28.0314ZM28.0313 51.7502C31.1461 51.7502 34.2304 51.1367 37.1081 49.9447C39.9857 48.7527 42.6005 47.0056 44.803 44.8031C47.0055 42.6006 48.7526 39.9859 49.9446 37.1082C51.1365 34.2305 51.75 31.1462 51.75 28.0314C51.75 24.9167 51.1365 21.8324 49.9446 18.9547C48.7526 16.077 47.0055 13.4622 44.803 11.2598C42.6005 9.05727 39.9857 7.31016 37.1081 6.11818C34.2304 4.9262 31.1461 4.3127 28.0313 4.3127C21.7407 4.3127 15.7077 6.81163 11.2596 11.2598C6.81147 15.7079 4.31253 21.7408 4.31253 28.0314C4.31253 34.3221 6.81147 40.355 11.2596 44.8031C15.7077 49.2513 21.7407 51.7502 28.0313 51.7502V51.7502Z" fill="white"/>
</svg>
